# xmcd
#
# Track frame offsets:
#	150
#	15683
#	31660
#	52838
#	69465
#	90019
#	105695
#	124185
#	147467
#	166478
#	182628
#	200662
#	222069
#	241688
#	256991
#	272447
#	301288
#
# Disc length: 4032 seconds
#
# Revision: 0
# Processed by: cddbd v1.5.1PL0 Copyright (c) Steve Scherf et al.
# Submitted via: audiograbber 1.83.01
#
DISCID=dc0fbe11
DTITLE=Various Artist - CBESP5041-03
DYEAR=1900
DGENRE=Karaoke
TTITLE0=Trace Adkins - Rough and Ready
TTITLE1=Craig Morgan - Tha'ts What I Like About Sunday
TTITLE2=John Michael Montgomery - Goes Good With Beer
TTITLE3=Brooks and Dunn - That's What It's All About
TTITLE4=Notorious Cherry Bombs - It's Hard To Kiss The Lips at Night
TTITLE5=Brad Cotter - I Meant To
TTITLE6=Rascall Flatts - My Worst Fear
TTITLE7=Tim McGraw - Back When
TTITLE8=Pat Green - Don't Break My Heart Again
TTITLE9=Blake Shelton - Some Beach
TTITLE10=Rascall Flatts - Bless The Broken Road
TTITLE11=Kenny Chesney - The Woman With You
TTITLE12=Montgomery Gentry - Gone
TTITLE13=David Lee Murphy - Loco
TTITLE14=Tracy Byrd - How'd I End Up In Jamaica
TTITLE15=Vince Gill - In These Last Few Days
TTITLE16=Data - DAta
EXTD=
EXTT0=
EXTT1=
EXTT2=
EXTT3=
EXTT4=
EXTT5=
EXTT6=
EXTT7=
EXTT8=
EXTT9=
EXTT10=
EXTT11=
EXTT12=
EXTT13=
EXTT14=
EXTT15=
EXTT16=
PLAYORDER=
